Coordinates
version=1
nRows=12
nColumns=19
inDegrees=yes

Units are S.I. units (second, meters, Newtons, ...)
If the header above contains a line with 'inDegrees', this indicates whether rotational values are in degrees (yes) or radians (no).

endheader
time	pelvis_to_ground_rx	pelvis_to_ground_ry	pelvis_to_ground_rz	pelvis_to_ground_tx	pelvis_to_ground_ty	pelvis_to_ground_tz	left_hip_abduction	left_hip_rotation	left_hip_flexion	left_knee_flexion	left_ankle_flexion	left_subtalar_angle	right_hip_abduction	right_hip_rotation	right_hip_flexion	right_knee_flexion	right_ankle_flexion	right_subtalar_angle
      1.74000000	     86.35825145	     -3.95677061	     -3.46798690	     -0.28853881	     -0.74772083	      0.70743046	     -2.76168437	      4.61825353	     41.51487481	    -37.07512732	     -1.19939287	     -8.93250140	     11.23822844	     10.53826125	     -7.28932859	    -22.31756994	      4.38323099	     -4.76357726
      1.75000000	     86.85511301	     -4.17955047	     -3.05189602	     -0.27521078	     -0.74642337	      0.70472122	     -2.67513440	      3.37345027	     40.63713012	    -36.42959123	     -1.20225752	     -9.52278006	     10.69689354	      9.94659239	     -7.83672021	    -24.20239515	      4.24116948	     -4.44785656
      1.76000000	     87.51461598	     -4.33001950	     -2.89662812	     -0.26180132	     -0.74504472	      0.70219896	     -2.82572537	      1.96554101	     40.04747450	    -36.26862230	     -1.04469073	    -10.29562171	      9.86865021	      9.14922837	     -7.85769687	    -26.41930516	      3.88749459	     -4.22437904
      1.77000000	     88.33705169	     -4.42201600	     -2.70701330	     -0.24829870	     -0.74361226	      0.69978621	     -3.33867048	      0.73885008	     39.53113788	    -36.65614358	     -1.40151332	    -12.07059137	      8.79344840	      8.05730141	     -7.66686267	    -28.94553553	      3.38989259	     -4.11784087
      1.78000000	     89.29563758	     -4.42693605	     -2.58854063	     -0.23476014	     -0.74214016	      0.69759070	     -4.16415028	     -0.38304737	     39.14172957	    -37.47717235	     -0.82336168	    -12.70273261	      7.51898947	      6.74553134	     -7.18459050	    -31.70913830	      2.53366477	     -3.98191722
      1.79000000	     90.37341717	     -4.34966313	     -2.47378616	     -0.22123439	     -0.74063229	      0.69562778	     -5.26983271	     -1.36947876	     38.76231376	    -38.59488428	     -0.22626526	    -13.52961463	      6.08389315	      5.22023024	     -6.49273470	    -34.67492617	      1.45324837	     -3.94371805
      1.80000000	     91.54433405	     -4.18756492	     -2.35796402	     -0.20777253	     -0.73910039	      0.69393578	     -6.61449234	     -2.19550629	     38.34477939	    -39.87495676	      0.38664122	    -14.38413008	      4.53710447	      3.51748874	     -5.62057706	    -37.78625319	      0.17650570	     -4.03671724
      1.81000000	     92.77235710	     -3.93391827	     -2.25875377	     -0.19443600	     -0.73757444	      0.69257869	     -8.12263330	     -2.87796206	     37.85225080	    -41.16219318	      0.76724514	    -15.41145554	      2.94968827	      1.70143335	     -4.58265484	    -40.96520578	     -1.55733157	     -5.04899647
      1.82000000	     94.02902598	     -3.61058140	     -2.19115400	     -0.18127638	     -0.73605145	      0.69160278	     -9.75765526	     -3.34153326	     37.28139748	    -42.35684660	      1.51813852	    -15.90384763	      1.35180048	     -0.23566135	     -3.35906243	    -44.19849197	     -2.82149533	     -5.01586696
      1.83000000	     95.27511900	     -3.20832688	     -2.16481847	     -0.16834868	     -0.73456867	      0.69107838	    -11.41848116	     -3.65435621	     36.59500895	    -43.32913780	      2.28934900	    -16.28939441	     -0.17081014	     -2.21130028	     -1.97738597	    -47.38871686	     -4.20821011	     -5.32328069
      1.84000000	     96.47854045	     -2.73700959	     -2.21110114	     -0.15570325	     -0.73314616	      0.69105883	    -13.03470413	     -3.83772232	     35.80689542	    -43.99768403	      3.03853486	    -16.46791215	     -1.55911425	     -4.18354532	     -0.41411280	    -50.48177654	     -5.61511574	     -5.95993391
      1.85000000	     97.61297019	     -2.19925217	     -2.29187369	     -0.14336020	     -0.73180954	      0.69155947	    -14.55771921	     -3.89469357	     34.87562711	    -44.32337602	      3.71884530	    -16.08825831	     -2.76730317	     -6.11284124	      1.27320276	    -53.41521602	     -6.99655070	     -7.42529913
